<?xml version="1.0" encoding="UTF-8"?>
<svg id="Layer_1" xmlns="http://www.w3.org/2000/svg" viewBox="0 0 270.14 218.08">
  <defs>
    <style>
      .cls-1 {
        fill: #fff;
      }

      .cls-2 {
        fill: #ffc8c5;
      }

      .cls-3 {
        fill: #a7c1b5;
      }

      .cls-4 {
        fill: #ce6a6a;
      }

      .cls-5 {
        fill: #fca89d;
      }

      .cls-6 {
        fill: #210b04;
      }

      .cls-7 {
        fill: #db9d21;
      }

      .cls-8 {
        fill: #175441;
      }

      .cls-9 {
        fill: #053530;
      }

      .cls-10 {
        fill: #993828;
      }
    </style>
  </defs>
  <path class="cls-3" d="M217.81,73.33c-3.36,1.35-4.8,4.47-5.33,7.8-1.16,7.29-5.08,12.65-7.74,19.34-1.25,3.14-2.5,6.31-4.38,9.14-1.57,2.37-3.7,4.3-5.17,6.74-1.09,1.81-1.65,3.34-1.61,5.44.05,3.06-.01,6.07.02,9.13.01,1.29,2.02,1.29,2,0-.06-5.24-.72-11.21,2.69-15.48,2.87-3.6,5.27-6.95,7.09-11.23,2.11-4.97,5.03-9.61,7.03-14.59,1.62-4.05,1.31-12.51,5.92-14.35,1.18-.47.67-2.41-.53-1.93h0Z"/>
  <g>
    <g>
      <path class="cls-2" d="M233.98,68.31c-3.47,2.95-10.2,5.29-14.2,1.88-4.88-4.17-1.19-13.1-.69-14.3.88-2.14,1.74-2.88,2-3.09,3.14-2.58,8.74-1.37,12.2,1.22.92.69,4.61,3.45,4.47,7.69-.12,3.5-2.78,5.77-3.77,6.62Z"/>
      <path class="cls-5" d="M221.44,53.3c3.67.9,4.11,5.27,5.81,8.06.25.41.6.73.91,1.09.22.27.44.53.68.79.28.39.32.34.11-.14-.57,1.16-2.09,2.12-2.77,3.35-.62,1.13,1.1,2.14,1.73,1.01.65-1.18,3.02-2.65,3.18-4.04.15-1.27-1.65-2.39-2.2-3.38-1.9-3.4-2.71-7.63-6.91-8.66-1.25-.31-1.78,1.62-.53,1.93h0Z"/>
      <path class="cls-5" d="M231.64,64.96c2.47-.07,4.96-.06,6.42-2.37,1.05-1.65-.15-3.67-1.21-5.02-1.85-2.36-3.59-4.45-6.6-5.24-1.39-.37-3.91-.64-3.84,1.51.03.93,1.02,1.48,1.24,2.19.3.96-.1,1.23.61,2.15.74.96,1.57,1.37,2.75,1.59.87.16,2.47.54,3.29.27,3.51-1.12-2.07-6.31-4.72-4.34-.36.27-.59.67-.46,1.13.28.97,1.16,1.63,1.77,2.38.82,1,2.23-.43,1.42-1.42-.29-.36-1.14-1.09-1.26-1.5-.15.38-.31.75-.46,1.13-.31.23-.15-.07.44.01.49.07.89.2,1.37.35.71.22,1.5.3.31.17-.5-.05-1.2-.07-1.66-.21-1.62-.5-1.1-1.05-1.42-2.19-.07-.26-.28-.45-.43-.67-.73-1.13-1.02-.75-.16-.79,2.65-.15,5.08,3.03,6.4,4.89.65.92,1.39,1.99.54,2.97-1.01,1.18-2.91.96-4.34,1-1.29.04-1.29,2.04,0,2h0Z"/>
      <path class="cls-5" d="M230.47,65.46c2.62,2.01,5.72,1.11,7.83-1.04.9-.92-.51-2.34-1.42-1.42-1.53,1.55-3.48,2.2-5.4.73-1.02-.78-2.02.96-1.01,1.73h0Z"/>
      <path class="cls-5" d="M224.79,52.46c.02,2.38,1.21,5.22,2.42,7.25.99,1.65,3.01,2.88,4.92,3.14,1.6.22,3.87-.58,4.27-2.34.43-1.9-1.57-3.37-3.01-4.16-1.13-.63-2.14,1.1-1.01,1.73.97.54,2.67,1.58,1.26,2.6-.94.67-2.87-.25-3.72-.89-1.05-.79-1.49-2.11-1.97-3.28-.53-1.29-1.14-2.63-1.15-4.04-.01-1.29-2.02-1.29-2,0h0Z"/>
      <path class="cls-5" d="M223.15,53.33c1.13-.57,3.13-1.65,4.43-1.27,1.07.31,2.17,1.28,3.29,1.67,1.12.38,1.54.3,2.07,1,.6.8.98,2.36,1.39,3.3.51,1.18,2.24.16,1.73-1.01-.51-1.16-.88-3.34-1.8-4.22-.94-.91-2.73-.87-3.91-1.42-1.23-.57-2.16-1.59-3.6-1.46-1.55.14-3.23.99-4.61,1.69-1.15.58-.14,2.31,1.01,1.73h0Z"/>
    </g>
    <g>
      <path class="cls-3" d="M225.73,72.32c-.49-1.01-2.29-1.78-3.2-2.3-.56-.32-1.16-.61-1.77-.85,1.09-.57,2.06-1.36,3.09-2.03.71-.46,2.06-1.15,1.63-2.23-.06-.16-.21-.32-.4-.31-1,.09-1.92.76-2.67,1.36-.91.73-1.88,1.44-2.7,2.28-.01-.52-.05-1.04-.12-1.56.08-2.05.36-4.17-.27-6.07-.11-.35-.57-.41-.76-.1-.77,1.2-.75,2.58-.72,3.97.02.57.12,1.11.25,1.64.03.66.1,1.3.2,1.93-.42-1.17-.97-2.32-1.77-3.26-.12-.15-.35-.14-.51-.07-.69.35-.79,1.18-.51,1.82.22.51.54.96.96,1.31.04.03.1.06.14.09.36.44.74.83,1.03,1.11-.64.68-1.18,1.61-.71,2.39.52.88,1.75.75,2.37.09.12-.12.28-.36.42-.64.17-.17.32-.35.43-.54.33.21.62.42.93.61.79.54,1.65,1.17,1.82,1.26.71.39,1.76.98,2.6.69.27-.09.37-.36.25-.61Z"/>
      <path class="cls-3" d="M217.7,68.19c-.65.65-1.23,1.37-1.6,2.21-.36.84-.49,1.8-.23,2.68.26.88.95,1.65,1.83,1.88,1.04.28,2.16-.2,2.92-.96s1.23-1.75,1.68-2.72l-4.6-3.09Z"/>
    </g>
  </g>
  <g>
    <g>
      <path class="cls-5" d="M231.51,114.47c.19,1.08.53,2.98-.45,3.78-1.14.93-2.59-.83-4.35.09-1.13.6-1.52,1.71-3.41,2.51-.12.05-.23.08-.37.12-3.19.75-8.58-2.31-8.58-6.5s5.26-7.03,8.58-6.5c1.75.28,2.42,2.73,4.94,2.96.77.07,1.24-.08,1.9.28,1.29.71,1.59,2.42,1.74,3.26Z"/>
      <path class="cls-3" d="M213.5,112.95c-.27.64-.8,4.86.95,4.04,1.05-.49,1.21-3.98.17-4.45-.24-.11-.46-.05-.61.16-.52.73-.36,2.09-.28,2.89.05.47.01,1.43.53,1.66.22.1.48.07.61-.16.46-.82.81-5.58-1.02-5.06-1,.29-1.25,1.96-1.15,2.8.17,1.45,1.05,2.96,1.81,4.18.15.24.49.3.7.09.9-.9.83-2.58.68-3.73-.14-1.01-.31-2.73-1.21-3.4-.11-.08-.34-.09-.45,0-1.71,1.32.72,4.31.53,5.86.15-.15.3-.3.44-.44-.03-.06-.06-.13-.09-.19-.27-.51-1.03-.06-.77.45.22.42.38.61.86.63.26.01.42-.22.44-.44.07-.53-.22-1.06-.37-1.55-.28-.88-.63-1.87-.65-2.8.02-.24.05-.49.07-.73-.56,0-.6.24-.14.73.18.49.29,1.02.38,1.53.17.96.43,2.69-.35,3.47.23.03.47.06.7.09-.72-1.16-1.73-2.74-1.73-4.14-.1-.61.08-1.04.53-1.29.16.44.25.9.28,1.37.06.69.1,1.52-.26,2.15.2-.05.41-.11.61-.16-.41-.18-.14-3.06.06-3.33l-.61.16c.5.22-.04,2.86,0,2.85-.08,0-.13-1.4-.07-1.85.05-.38.11-.77.26-1.13.22-.53-.64-.76-.86-.24h0Z"/>
      <path class="cls-3" d="M213.9,112.86c-.65-.52-1.47-.76-2.26-.98-1.74-.5-3.52-1-5.34-.92-.24.01-.51.06-.61.27-.07.14-.03.32.07.45.09.13.23.22.37.3,1.39.87,2.99,1.4,4.62,1.54-1.4.98-2.58,2.23-3.74,3.47-.2.21-.4.5-.27.76.11.2.39.24.62.24,2.1.01,4.2-.83,5.71-2.28-.56.73-1.31,1.31-1.94,1.98s-1.18,1.51-1.19,2.44c0,.19.03.4.19.5.1.06.23.05.35.04,1.97-.19,3.81-1.44,4.71-3.2.03-.05.05-.13,0-.17-.04-.04-.12.06-.06.07l-1.24-4.51Z"/>
    </g>
    <path class="cls-3" d="M212.95,113.86c-1.8,3.33-5.38,4.69-7.76,7.43-2.31,2.67-3.98,6.06-4.97,9.43-.16.55.7.78.86.24,1.18-4.03,3.38-7.95,6.6-10.67,2.2-1.86,4.63-3.37,6.03-5.97.27-.5-.49-.95-.77-.45h0Z"/>
  </g>
  <g>
    <path class="cls-3" d="M181.95,91.33c-1.28-1.61-2.57-3.28-3.77-5.01.08-.04.18-.05.26-.1-.11.02-.23.01-.34,0-.24-.34-.47-.68-.7-1.03.2-.72.59-1.4,1.02-2.02.62-.91,1.32-1.81,1.58-2.87.09-.34.12-.71,0-1.04-.13-.33-.47-.59-.82-.54-.34.05-.58.37-.75.67-.76,1.33-1.15,2.85-1.37,4.37-.03.25-.06.51-.06.76-.86-1.36-1.61-2.77-2.23-4.23,1.06-1.01,1.95-2.66,2.45-3.95.48-1.24.71-2.59.51-3.9-.1-.68-.44-1.45-1.12-1.56-.43-.07-.86.17-1.13.5-.27.34-.41.76-.53,1.17-.6,2.13-.77,4.36-.71,6.57-.79-2.1-2.07-4.31-2.67-6.41-.09-.33-.14-.7-.2-1.05-.03-.29-.07-.57-.12-.86-.03-.26-.05-.53-.06-.8.33-2.07.79-4.13.93-6.23.14-2.21-.11-4.52-1.22-6.44-.28-.48-.71-.99-1.27-.96-.56.03-.94.59-1.12,1.12-.35,1.02-.31,2.13-.09,3.19.22,1.05.61,2.06.96,3.08.41,1.19.72,2.42,1.03,3.65.11,1.85,0,3.81.52,5.58.64,2.18,2.02,4.37,2.8,6.57.14.4.31.79.47,1.17-.43.15-.74-.19-1.06-.62-.54-.73-1.08-1.45-1.61-2.18-.59-.8-1.18-1.6-1.78-2.39-.42-.57-.87-1.16-1.49-1.5-.62-.34-1.48-.36-1.98.15-.5.51-.45,1.38-.08,2,.37.62.98,1.04,1.58,1.44,2.25,1.51,4.51,3,6.86,4.34-.08-.22-.16-.43-.2-.66.12.26.25.51.37.76-.06-.03-.11-.07-.17-.1.05.15.07.31.14.46.05-.04.09-.09.14-.13.63,1.26,1.35,2.47,2.14,3.64-1.61-.78-3.21-1.56-4.82-2.34-.63-.31-1.41-.61-2-.24-.46.29-.63.92-.48,1.44.16.52.58.93,1.06,1.19s1.02.38,1.55.49c1.01.22,2.03.42,3.06.43.7,0,1.4-.13,2.07-.34,1.24,1.77,2.59,3.47,3.95,5.18.25.32.73-.09.48-.41Z"/>
    <path class="cls-3" d="M175.45,82.95c0-.36-.18-.68-.26-1.03-.08-.33-.38-.7-.39-1.02-.01-.32-.51-.35-.49-.03.02.7.65,1.35.65,2.05,0,.32.5.35.49.03h0Z"/>
    <path class="cls-3" d="M174.76,78.92c-.99-1.56-.63-3.84-.61-5.61.03-2.63-.05-3.36,1.57-5.62,1.87-2.6,5.32-4.52,8.13-6.18.27-.16.06-.61-.22-.45-2.25,1.33-4.43,2.78-6.66,4.14-1.28.78-2.35,1.4-2.9,2.88-.7,1.9-.46,4.47-.44,6.46.01,1.47-.15,3.29.68,4.59.17.27.62.05.45-.22h0Z"/>
    <path class="cls-3" d="M175.83,67.17c1.6-.22,2.96-.91,4.64-.77,1.67.14,3.3.71,4.91,1.13,2.65.69,4.12.51,6.46-.9.27-.16.06-.61-.22-.45-1.94,1.17-3.54,1.51-5.75.96-1.29-.32-2.56-.74-3.86-1-.97-.2-1.98-.34-2.97-.27-1.19.08-2.16.65-3.31.81-.32.04-.22.53.1.49h0Z"/>
    <path class="cls-3" d="M184.08,67.11c.52-.14,1.77.73,2.16,1.02.7.52,1.32,1.27,1.94,1.88.89.88,1.74,1.66,2.87,2.2.29.14.44-.33.16-.47-1.75-.84-2.87-2.42-4.29-3.67-.54-.47-2.13-1.65-2.93-1.44-.31.08-.21.57.1.49h0Z"/>
    <path class="cls-3" d="M183.86,66.96c1.7-.12,3.19-1.88,4.21-3.09.2-.24-.21-.52-.41-.28-.91,1.09-2.36,2.78-3.89,2.88-.32.02-.22.51.1.49h0Z"/>
    <path class="cls-7" d="M185.29,62.85c-.56.83-1.68,1.05-2.51.49-.83-.56-1.05-1.68-.49-2.51.56-.83,1.68-1.05,2.51-.49.83.56,1.05,1.68.49,2.51Z"/>
    <path class="cls-7" d="M190.42,65.22c-.8,1.19-2.42,1.51-3.62.71-1.19-.8-1.51-2.42-.71-3.62.8-1.19,2.42-1.51,3.62-.71s1.51,2.42.71,3.62Z"/>
    <path class="cls-7" d="M193.38,68.12c-.57.84-1.71,1.07-2.55.5-.84-.57-1.07-1.71-.5-2.55.57-.84,1.71-1.07,2.55-.5.84.57,1.07,1.71.5,2.55Z"/>
    <path class="cls-7" d="M192.62,73.22c-.57.84-1.71,1.07-2.55.5-.84-.57-1.07-1.71-.5-2.55.57-.84,1.71-1.07,2.55-.5.84.57,1.07,1.71.5,2.55Z"/>
  </g>
  <g>
    <path class="cls-8" d="M199.54,131.33c-.2-.74-.42-1.53-.63-2.29-.01-.06-.01-.13-.02-.19-.21-1.02-.7-2-.71-3.06-.01-1.42.56-3.08,1.13-4.51,3.8-2.11,6.69-5.89,7.51-10.17.06-.33.1-.71-.13-.96-.27-.3-.75-.22-1.14-.11-2.62.79-4.94,2.53-6.44,4.83-1.12,1.72-1.78,3.75-1.89,5.8-.13.14-.32.24-.41.4-.01.02,0,.07-.02.09-.01-.06-.03-.11-.04-.17-.52-3.08-1.12-6.72-1.67-10.33.66-.46,1.33-.92,2.05-1.29,2.02-1.04,4.24-1.69,6.19-2.87,1.95-1.18,3.67-3.08,3.79-5.35.06-1.08-.31-2.24-1.17-2.9-.77-.58-1.82-.68-2.75-.44-1.57.41-2.76,1.67-3.73,2.97-1.34,1.8-2.42,3.8-3.2,5.91-.31.84-.64,2.25-1.34,2.99-.49-3.17-.93-6.24-1.25-8.78-.02-2.35.12-4.65.48-6.89.22-.66.38-1.32.67-1.97,3.49-7.84,7.14-15.66,9.4-23.93.15-.56.3-1.15.14-1.7-.16-.55-.73-1.04-1.28-.88-.33.09-.57.38-.79.66-1.63,2.08-3.28,4.17-4.46,6.54-1.79,3.58-2.43,7.61-2.85,11.59-.63,1.26-1.26,2.33-1.88,3.09-.13-1.89-.28-3.78-.47-5.66-.06-.61-.13-1.24-.42-1.79-.29-.54-.86-.99-1.47-.94-.81.06-1.33.89-1.64,1.65-1.26,3.01-1.6,6.4-.96,9.6.32,1.59.87,3.13,1.63,4.57.34.64,1.17,2.33,2.04,3.15.13,1.62.32,3.23.51,4.84.1,2.27.33,4.56.67,6.85-.28-.3-.53-.66-.73-.98-1.35-2.19-2.26-4.62-3.27-6.98-.56-1.31-1.16-2.62-1.88-3.85-.47-.81-1.02-1.61-1.82-2.11-.8-.49-1.9-.61-2.65-.05-.6.45-.87,1.25-.85,2,.02.75.3,1.47.61,2.16,2.11,4.66,6.03,8.38,10.7,10.45.4,2.51.91,5,1.48,7.47.24,1.27.48,2.54.73,3.81-.2-.14-.41-.28-.59-.44-1.03-.87-1.86-1.95-2.86-2.87-1.71-1.58-3.85-2.63-6.02-3.51-.87-.35-1.78-.68-2.71-.65-.94.03-1.92.49-2.3,1.35-.5,1.13.2,2.45,1.09,3.32,1.93,1.87,4.68,2.62,7.35,2.95.23.03.46.04.68.06.11.06.2.15.31.21,1.65.89,3.76.99,5.14,2.25.15.14.31.17.47.16.3,1.5.59,3.01.9,4.51.08.4.41.5.72.42.12.79.23,1.58.43,2.36.09.34.35.43.61.41.45.26,1.18-.13,1-.79Z"/>
    <g>
      <g>
        <path class="cls-2" d="M213.25,97.55c-4.4,1.47-11.67,1.12-14.15-3.63-3.03-5.8,3.86-12.85,4.79-13.8,1.65-1.69,2.75-2.06,3.07-2.16,3.96-1.24,8.8,2.03,11.08,5.8.61,1.01,3.05,5.02,1.3,8.98-1.45,3.27-4.83,4.4-6.09,4.82Z"/>
        <path class="cls-5" d="M207.21,78.62c3.16,2.27,1.81,7.33,2.56,10.57.1.42.71,1.4.64,1.8.07-.38.13-.47-.53-.03-1.12.73-2.3,1.08-3.39,1.96-1,.81.42,2.22,1.42,1.42.93-.75,3.86-1.32,4.45-2.51.59-1.17-.64-2.97-.8-4.16-.53-4.01.3-8.15-3.34-10.77-1.05-.75-2.05.98-1.01,1.73h0Z"/>
        <path class="cls-5" d="M212.42,93.5c2.28.84,5.72,2.11,7.51-.45,1.29-1.84.09-4.7-.51-6.57-.83-2.57-2.25-4.86-4.72-6.14-1.43-.74-2.93-.61-3.16,1.19-.07.56.2,1,.2,1.55.02,4.19.2-2.47-.11,1.03-.07.77-.12,1.3.19,2.08.63,1.59,3.38,3.73,5.12,3.69,3.47-.08,0-6.72-3.18-5.88-.46.12-.69.52-.73.97-.09.9.46,1.85.73,2.68.4,1.22,2.34.7,1.93-.53-.19-.56-.72-1.54-.66-2.15-.25.32-.49.64-.74.97-.63.16,1.78,1.12,2.22,1.71.37.13.35.1-.08-.1-.25-.13-.5-.27-.75-.4-.4-.22-.89-.41-1.23-.71-1.23-1.11-.65-1.27-.54-2.31.08-.72-.36-1.36-.32-2.07.05-.87.41.09.95.58.52.47.95.8,1.39,1.35.92,1.13,1.36,2.41,1.79,3.79.3.97.87,2.3.65,3.32-.54,2.45-3.9,1.06-5.44.5-1.21-.45-1.73,1.49-.53,1.93h0Z"/>
        <path class="cls-5" d="M210.96,93.39c.67,1.13,2.11,2.33,3.38,2.68,1.59.45,3.11,0,4.58-.64,1.18-.51.16-2.24-1.01-1.73-1.91.83-4.07.63-5.23-1.33-.66-1.11-2.39-.1-1.73,1.01h0Z"/>
        <path class="cls-5" d="M210.57,79.17c-.9,2.3-.86,5.75-.34,8.12.43,1.93,2.25,4.11,4.14,4.76,1.45.5,3.62.19,4.34-1.34.76-1.63-.61-3.56-1.56-4.78-.79-1.01-2.2.41-1.42,1.42.38.47.68.98.92,1.53-.24,1.43-.93,1.79-2.07,1.07-1.25-.65-2.18-2.22-2.44-3.5-.41-1.97-.37-4.88.36-6.74.47-1.2-1.47-1.72-1.93-.53h0Z"/>
        <path class="cls-5" d="M208.56,79.24c1.11-.09,2.5-.18,3.6.02,1.4.25,2.09,1.84,3.05,2.72.55.51,1.89,1.18,2.26,1.83.2.35-.05,1.33-.05,1.73,0,.76.06,1.51.08,2.27.04,1.29,2.04,1.29,2,0-.02-.88-.09-1.76-.08-2.64,0-.68.21-1.51-.03-2.17-.18-.48-.49-.62-.86-.91-.79-.62-1.64-1.18-2.35-1.92-.9-.94-1.31-2.26-2.63-2.72-1.42-.5-3.54-.33-5.01-.2-1.27.11-1.29,2.11,0,2h0Z"/>
      </g>
      <path class="cls-3" d="M199.74,87.03c.25-.26.56-.54.91-.49.42.06.63.53.76.94.6,1.84,1.19,3.69,1.79,5.53.44,1.37.86,2.96.09,4.17-.54.85-1.57,1.29-2.57,1.37-1,.08-2-.15-2.98-.38-1.13-.26-2.26-.53-3.4-.79-1.52-.35-1.07-1.32-.19-2.14.58-.55,1-1.11,1.36-1.82,1.16-2.32,2.45-4.48,4.23-6.39Z"/>
    </g>
    <path class="cls-3" d="M200.26,130.34c.94-8.86,9.26-17.33,14.58-23.92,2.65-3.28,4.02-7.08,8.34-8.87,1.96-.81,4.07-.9,5.92-2.1,2.69-1.75,4-4.55,5.73-7.15.38-.57-.58-1.05-.95-.48-3.04,4.56-6.1,7.16-11.05,8.73-1.83.58-4.28.95-5.8,2.32-2.44,2.2-2.4,5.81-4.25,8.49-4.82,7-12.61,13.66-13.58,22.77-.07.68.97.9,1.04.22h0Z"/>
    <path class="cls-3" d="M218.9,99.54c3.22-2.58,7.53-3.51,9.29-7.61,2.41-5.63,1.91-12.27,5.59-17.54.39-.56-.41-1.27-.8-.71-2.24,3.21-3.4,7.52-4.3,11.31-.93,3.9-.79,7.09-4.45,10.01-1.83,1.45-4.1,2.19-5.91,3.64-.53.43.06,1.32.59.89h0Z"/>
    <path class="cls-3" d="M236.71,96.83c-4.01,1.73-9.69,3.96-14.05,3.74-2.74-.14-3.17-.95-5.55.22-.61.3-.27,1.31.34,1.01,2.35-1.15,5.09.13,7.69-.29,3.95-.65,8.24-2.08,11.91-3.66.63-.27.29-1.28-.34-1.01h0Z"/>
    <path class="cls-7" d="M233.41,77.11c-1.4.08-2.6-.98-2.68-2.38-.08-1.4.98-2.6,2.38-2.68s2.6.98,2.68,2.38c.08,1.4-.98,2.6-2.38,2.68Z"/>
    <path class="cls-7" d="M234.79,92.16c-2.15.13-4-1.51-4.13-3.66-.13-2.15,1.51-4,3.66-4.13,2.15-.13,4,1.51,4.13,3.66.13,2.15-1.51,4-3.66,4.13Z"/>
    <path class="cls-7" d="M236.91,101.97c-1.88.11-3.49-1.32-3.6-3.2-.11-1.88,1.32-3.49,3.2-3.6s3.49,1.32,3.6,3.2-1.32,3.49-3.2,3.6Z"/>
  </g>
  <path class="cls-9" d="M166.22,218.08H43.72c3.82-6,6.34-12.59,10.08-21.54,9.38-22.4,8.38-16.19,17.23-37.52,2.53-6.09,5.24-12.95,8.05-20.54.41-1.09.81-2.21,1.22-3.33,1.5-4.12,3.01-8.45,4.53-12.98,2.11-6.29,4.23-12.98,6.32-20.03.44-1.46.86-2.94,1.3-4.44.02-.06.04-.12.05-.2l.05-.19c.13-.46.27-.93.4-1.4.2-.69.39-1.38.59-2.07.23-.81.45-1.63.69-2.45.15-.56.31-1.12.46-1.68.32.04.63.06.95.09,1.52.15,3.05.3,4.57.45,11.85,1.16,23.69,2.3,35.54,3.46.27.36.53.75.82,1.15,3.02,4.3,6.89,10.23,10.87,17.59,1.25,2.3,2.47,4.57,3.64,6.85.93,1.82,1.83,3.66,2.67,5.53.14.3.28.61.41.92,1.58,3.62,2.92,7.34,3.84,11.32.08.32.15.65.22.97.04.17.06.33.1.5.22,1.07.4,2.11.54,3.15.15,1.02.26,1.98.34,2.94.05.53.09,1.06.12,1.58.02.12.02.25.03.37,0,.2.02.4.03.59.06,1.46.07,2.87.03,4.22,0,.28-.02.56-.04.84-.12,2.76-.41,5.26-.76,7.46-.34,2.09-.72,3.91-1.04,5.39-.15.73-.29,1.38-.41,1.94-.13.65-.25,1.32-.36,2-.23,1.4-.4,2.87-.52,4.43-.76,10.49,1.25,24.83,9.94,44.62Z"/>
  <path class="cls-6" d="M126.47,79.12c.87.95,1.8,1.79,2.76,2.51-.58-8.22,2.32-14.42,3.32-16.38-2.69-.79-5.39-1.58-8.08-2.37-.19.13-.37.28-.54.44-3.58,3.27-2.44,10.34,2.54,15.81Z"/>
  <g>
    <path class="cls-5" d="M114.26,70.43c7.03,1.54,13.1,2.33,17.84,2.76,1.12.1,7.53.63,14.22-1.41,1.8-.55,3.66-1.29,4.57-3.09,1.31-2.59.05-5.05-.07-5.28.04-.64.26-.93.44-1.09.6-.51,1.56-.06,2.31-.83.04-.04.07-.07.1-.11.52-.64,1-1.83.47-2.72-.32-.54-.89-.76-1.16-.84.22-.13,1.85-1.11,2-2.87,0-.07,0-.13,0-.2.01-.6-.25-1.17-.69-1.57-.58-.54-1.24-1.22-1.91-2.03-4.34-5.25-5.64-11.85-5.19-14.71.05-.33.28-1.66.33-3.5.02-.58.01-1.21-.03-1.92-.28-4.79-2.01-8.3-3.02-10.32-2.56-5.1-6.02-8.54-8.53-10.59-2.93-2.54-8.08-6.22-15.24-7.55-12.95-2.4-31.68,3.86-36.59,18.7-4.99,15.06,6.6,31.85,14.92,35.89,1.28.62,5.28,2.3,9.42,6.13,2.85,2.64,4.7,5.31,5.81,7.14Z"/>
    <path class="cls-5" d="M150.47,50.6c.32-.46.84-1.07,1.64-1.57.84-.52,1.29-.38,1.98-.95.25-.21.83-.77,1.07-1.67.04-.15.3-1.19-.17-2.16-.58-1.2-1.96-1.63-2.49-1.83-1.21-.44-3.05-1.68-5.79-5.26.08,2.38.15,4.75.23,7.13,1.18,2.1,2.36,4.21,3.53,6.31Z"/>
  </g>
  <path class="cls-6" d="M149.04,59.01c-.18,0-.37-.01-.56-.05-.75-.13-1.3-.49-1.63-.77-.14-.12-.16-.33-.04-.47.12-.14.33-.16.47-.04.27.23.71.52,1.31.62,1.15.2,2.05-.42,2.3-.62.14-.11.35-.09.47.06.11.15.09.35-.06.47-.26.2-1.12.8-2.26.8Z"/>
  <path class="cls-4" d="M150.97,56.2c-1.39,1.2-3.15,1.43-4.39,1.45.22.12,3.75,1.95,6.38.18.2-.13,2.26-1.54,1.98-3.4-.09-.64-.49-1.61-1.12-1.7-.89-.12-1.19,2.03-2.86,3.47Z"/>
  <g>
    <path class="cls-6" d="M143.89,26.45c.17.04,1.4.35,2,1.58.5,1.02.22,1.98.16,2.19l-2.16-3.77Z"/>
    <path class="cls-6" d="M143.54,26.39c.21.48.52,1.13.93,1.88.67,1.21.91,1.39.82,1.6-.32.73-3.92-.73-7.9-.83-2.84-.07-5.2.58-6.8,1.18.3-.57.64-1.05.99-1.45,3.6-4.08,10.81-2.62,11.96-2.38Z"/>
  </g>
  <path class="cls-6" d="M148.74,62.57c-.18,0-.32-.14-.33-.32,0-.18.13-.34.32-.35l2.29-.1c.19-.02.34.13.35.32,0,.18-.13.34-.32.35l-2.29.1s-.01,0-.02,0Z"/>
  <g>
    <path class="cls-5" d="M115,47.73c1.12,4.89,4.96,8.19,8.57,7.36,3.61-.83,5.63-5.47,4.5-10.36-1.12-4.89-4.96-8.19-8.57-7.36-3.61.83-5.63,5.47-4.5,10.36Z"/>
    <g>
      <path class="cls-6" d="M122.45,55.55c-1.94,0-3.91-1.03-5.45-2.91-.12-.14-.1-.35.05-.47.14-.12.35-.1.47.05,1.7,2.07,3.94,3.02,5.99,2.55.96-.22,1.81-.72,2.53-1.5.13-.14.34-.14.47-.02.13.13.14.34.02.47-.82.87-1.78,1.44-2.87,1.7-.4.09-.8.14-1.2.14Z"/>
      <path class="cls-6" d="M116.53,51.75c-.11,0-.22-.05-.28-.15-.59-.93-1.06-1.96-1.38-3.07-.05-.18.05-.36.23-.41.18-.05.36.05.41.23.31,1.05.74,2.02,1.3,2.9.1.16.05.36-.1.46-.06.04-.12.05-.18.05Z"/>
      <path class="cls-6" d="M114.82,47.09c-.16,0-.3-.12-.33-.29-.7-4.76,1.42-8.96,4.94-9.77.8-.18,1.63-.18,2.47,0,.18.04.29.22.25.4-.04.18-.22.29-.4.25-.73-.17-1.46-.17-2.17,0-3.18.73-5.08,4.61-4.43,9.02.03.18-.1.35-.28.38-.02,0-.03,0-.05,0Z"/>
    </g>
    <path class="cls-6" d="M123.87,50.49c-.11,0-.21-.05-.27-.14l-5.14-7.36c-.11-.15-.07-.36.08-.46.15-.11.36-.07.46.08l5.13,7.36c.11.15.07.36-.08.46-.06.04-.12.06-.19.06Z"/>
    <path class="cls-6" d="M121.14,46.1s-.07,0-.11-.02c-.17-.06-.27-.25-.21-.42l.98-2.92c.06-.17.25-.27.42-.21.17.06.27.25.21.42l-.98,2.92c-.05.14-.18.23-.32.23Z"/>
  </g>
  <g>
    <path class="cls-5" d="M183.92,144.39c.2,4.71.4,9.42.6,14.13,11.68-2.21,19.71-3.58,22.68-3.73.63-.03,2.67-.09,4.73-1.32,1.01-.6,1.7-1.3,2.1-1.74,0,0,.81-.88,1.42-1.99.96-1.73.52-8.11-2.36-16.11.52-.35,1.44-9.01-6.95-5.56-2.26.93-5.35,2.28-8.96,4.14,4.33.1,7.6-1.75,8.43-4.32.26-.81.43-2.38-.38-3.02-1.07-.85-3.99-.2-12.08,6.28-.88,1.75-1.76,3.5-2.65,5.25-2.2,2.67-4.39,5.33-6.58,8Z"/>
    <path class="cls-6" d="M196.69,133.71c-.11,0-.22-.06-.28-.16-.1-.16-.05-.36.11-.46l8.92-5.49c.16-.1.36-.05.46.11.1.16.05.36-.11.46l-8.92,5.49c-.05.03-.11.05-.17.05Z"/>
    <path class="cls-6" d="M196.46,133.47s-.06,0-.09-.01l-1.67-.49c-.18-.05-.28-.24-.23-.41.05-.18.24-.28.41-.23l1.67.49c.18.05.28.24.23.41-.04.15-.18.24-.32.24Z"/>
    <path class="cls-6" d="M209.9,136.74c-.1,0-.19-.04-.26-.12-.12-.14-.09-.35.05-.47l3.07-2.48c.14-.12.35-.09.47.05.12.14.09.35-.05.47l-3.07,2.48c-.06.05-.14.07-.21.07Z"/>
    <path class="cls-6" d="M212.13,141.29c-.1,0-.2-.05-.27-.13-.11-.15-.08-.36.07-.47l2.03-1.52c.15-.11.36-.08.47.07.11.15.08.36-.07.47l-2.03,1.52c-.06.04-.13.07-.2.07Z"/>
    <path class="cls-6" d="M213.36,146.41c-.09,0-.17-.03-.24-.1-.13-.13-.13-.34,0-.47l1.89-1.87c.13-.13.34-.13.47,0,.13.13.13.34,0,.47l-1.89,1.87c-.07.06-.15.1-.23.1Z"/>
  </g>
  <path class="cls-4" d="M134.7,6.35c5.13,7.47-3.31,16.19-6.33,41.46-1.41,11.79-.99,21.76-.33,28.7-16.44,3.92-22.73,1.34-25.39-1.9-3.04-3.71-2.17-7.51-6.75-11.79-4.95-4.63-8.97-2.55-13.71-6.1-8.93-6.69-6.67-23.13-6.46-24.46,2.2-14.65,13.77-22.82,16.75-24.77,13.99-9.16,35.89-10.35,42.21-1.14Z"/>
  <path class="cls-5" d="M146.42,196.22c-7.79,1.39-15.59,2.77-23.38,4.16-9.65-13.54-19.76-30.29-28.46-50.35-3.54-8.17-6.49-16.06-8.95-23.55-3.53-13.97,2.88-24.91,8.92-25.92,5.36-.89,13.17,5.57,16.44,16.28,11.81,26.46,23.62,52.92,35.43,79.39Z"/>
  <path class="cls-5" d="M206.61,130.06c1.26,2.74,2.52,5.48,3.78,8.21-15.96,14.11-38.45,30.06-68.06,40.88-7.11,2.6-14,4.67-20.58,6.32-2.69-7.45-5.38-14.89-8.07-22.34,6.38-3.87,11.71-6.34,14.89-7.72,26.16-11.35,41.97-7.29,66.84-19.17,5.22-2.5,9.18-4.9,11.21-6.18Z"/>
  <path class="cls-9" d="M137.92,161.02c2.89,24.83-4.75,42.36-13,43.65-7.2,1.13-16.92-9.78-23.28-25.09-7.36-13.41-14.72-26.82-22.07-40.23-9.85-17.14-1.75-37.68,12.77-43.21,12.35-4.71,28.8,1.65,36.01,16.4,3.19,16.16,6.38,32.32,9.58,48.48Z"/>
  <path class="cls-9" d="M205.65,218.08h-97.09c-2.39-3.15-4.78-7.4-6.45-13.12,2.32-3.79,4.65-7.65,6.97-11.58,1.46-2.45,2.9-4.92,4.35-7.42.98-1.69,1.96-3.39,2.94-5.1.77-1.34,1.53-2.68,2.28-4,3.67-6.49,7.19-12.89,10.57-19.2.18-.33.36-.66.53-.99.41-.76.81-1.51,1.21-2.27.13-.25.27-.51.4-.76,1.53-.62,3.11-1.25,4.75-1.87,6.09-2.31,12.94-4.57,20.5-6.51l1.25-.32c.44-.11.89-.21,1.34-.32.07-.02.13-.04.2-.05,1.41-.35,2.82-.67,4.21-.96,1.08-.24,2.14-.46,3.18-.67.59-.12,1.17-.23,1.73-.34.21-.04.39-.07.57-.12.09,0,.15-.03.23-.04.7-.13,1.4-.26,2.08-.38.12-.02.23-.04.33-.05,3.1-.53,6.08-.97,8.93-1.33.25-.04.5-.07.75-.1.35-.04.69-.09,1.04-.12.69-.08,1.37-.16,2.04-.22.61-.07,1.21-.12,1.8-.19.1.37.19.75.27,1.12.04.13.06.27.09.4,1.17,5.28,1.58,9.94,1.56,13.95,0,.79-.03,1.57-.06,2.3-.12,2.61-.41,4.91-.76,6.9-1.86,10.49-6.84,13.7-4.97,19.78,2.75,9,14.94,9.16,16.03,17.71.68,5.36-3.68,8.71-1.45,11.93,1.74,2.53,5.27,1.64,8.66,3.91Z"/>
  <path class="cls-6" d="M79.17,216.73c-.09,0-.18-.04-.25-.11-5.59-6.26-5.34-8.95-4.79-14.84.25-2.7.56-6.06.39-10.77-.46-12.59,1.17-25.15,4.86-37.33.05-.18.24-.28.42-.22.18.05.28.24.22.42-3.67,12.1-5.29,24.59-4.83,37.11.18,4.76-.14,8.14-.39,10.86-.53,5.69-.77,8.29,4.62,14.34.12.14.11.35-.03.47-.06.06-.14.08-.22.08Z"/>
  <path class="cls-6" d="M94.88,188.09c-.07,0-.13-.02-.19-.06-.15-.11-.19-.31-.08-.46,2.36-3.38,4.92-6.65,7.63-9.73,18.85-21.43,42.62-28.68,56.82-33.01.18-.05.36.05.42.22.05.18-.05.36-.22.42-14.14,4.31-37.79,11.52-56.51,32.81-2.69,3.06-5.24,6.31-7.58,9.67-.06.09-.17.14-.27.14Z"/>
  <path class="cls-6" d="M126.18,156.95c-.2-.01-.34-.17-.33-.35l.83-15.4c0-.18.15-.34.35-.31.18,0,.33.17.32.35l-.83,15.4c0,.18-.16.32-.33.32Z"/>
  <path class="cls-6" d="M115.81,63.82c-.15,0-.28-.1-.32-.25-1.44-5.33-2.16-10.78-2.15-16.2.03-16.88,7.03-30.13,12.9-38.27.11-.15.32-.18.47-.08.15.11.18.32.08.47-5.81,8.06-12.74,21.18-12.77,37.88-.01,5.37.71,10.76,2.13,16.03.05.18-.06.36-.24.41-.03,0-.06.01-.09.01Z"/>
  <path class="cls-6" d="M100.55,44.71c-.17,0-.31-.12-.33-.29-.83-6.58-.49-13.2,1-19.66,1.46-6.28,3.97-12.22,7.46-17.65.1-.16.31-.2.46-.1.15.1.2.31.1.46-3.45,5.36-5.93,11.23-7.37,17.44-1.48,6.38-1.81,12.92-.99,19.42.02.18-.11.35-.29.37-.01,0-.03,0-.04,0Z"/>
  <g>
    <path class="cls-3" d="M198.2,131.74c-7.17.82-14.07,6.03-20.81,8.38-3.25,1.13-6.88,1.39-10.05,2.52-2.24.8-3.67,2.83-4.98,4.72-4.95,7.12-9.33,14.73-13.73,22.19-2.27,3.86-4.56,7.71-6.62,11.68-1.52,2.92-2.94,5.65-2.51,9.03.02.17.29.17.27,0-.57-4.45,2.36-8.8,4.46-12.56,1.65-2.94,3.35-5.84,5.07-8.74,3.77-6.39,7.65-12.73,11.67-18.98,2.47-3.84,4.53-6.21,9.04-7.41,2.73-.72,5.45-1.46,8.11-2.42,6.54-2.37,13.15-7.34,20.09-8.13.17-.02.17-.29,0-.27h0Z"/>
    <ellipse class="cls-3" cx="139.59" cy="192.52" rx="5.38" ry="2.15"/>
    <ellipse class="cls-3" cx="140.01" cy="184.32" rx="7.46" ry="2.98"/>
    <path class="cls-3" d="M152.08,177.48c-.3,1.89-4.38,2.83-9.13,2.09-4.75-.74-8.36-2.88-8.06-4.77.3-1.89,4.38-2.83,9.13-2.09,4.75.74,8.36,2.88,8.06,4.77Z"/>
    <path class="cls-3" d="M158.78,167.26c-.3,1.89-4.38,2.83-9.13,2.09-4.75-.74-8.36-2.88-8.06-4.77.3-1.89,4.38-2.83,9.13-2.09,4.75.74,8.36,2.88,8.06,4.77Z"/>
    <path class="cls-3" d="M167.21,156.84c-.36,2.33-5.39,3.48-11.23,2.57-5.84-.91-10.28-3.54-9.91-5.86.36-2.33,5.39-3.48,11.23-2.57,5.84.91,10.28,3.54,9.91,5.86Z"/>
    <path class="cls-3" d="M173.72,149.89c-1.18,2.04-6.28,1.3-11.4-1.65-5.12-2.95-8.31-7-7.13-9.05,1.18-2.04,6.28-1.3,11.4,1.65,5.12,2.95,8.31,7,7.13,9.05Z"/>
    <path class="cls-3" d="M180.93,147.42c-1.91,1.39-6.27-1.36-9.75-6.13-3.48-4.78-4.75-9.77-2.85-11.16s6.27,1.36,9.75,6.13,4.75,9.77,2.85,11.16Z"/>
    <path class="cls-3" d="M188.72,141.58c-1.41,1.03-4.63-1-7.2-4.53-2.57-3.53-3.51-7.22-2.1-8.25,1.41-1.03,4.63,1,7.2,4.53s3.51,7.22,2.1,8.25Z"/>
  </g>
  <g>
    <path class="cls-3" d="M165.68,114.78c.74-.03,1.47-.12,2.2-.14.43-.01,1.32.23,1.46-.44.12-.6-.82-1.27-1.16-1.62-.57-.58-1.16-1.14-1.76-1.68-.79-.7-1.66-1.38-2.65-1.53-1.1-.16-2.17.35-3.26.56-.95.19-1.95.15-2.85.52-.47.2-.96.64-.87,1.2.07.38.39.63.69.82,2.47,1.61,5.35,2.41,8.2,2.3Z"/>
    <path class="cls-3" d="M198.45,134.25c-.15-.21-.22-.3-.32-.39.28.02.46-.31.39-.59-.02-.13-.1-.26-.25-.32-.18-.08-.35-.16-.53-.22-.2-.09-.38-.17-.58-.24-.28-.11-.54-.21-.82-.3-.31-.12-.62-.22-.93-.33-.45-.15-.92-.29-1.38-.44l-.88-.27c-1.69-.53-3.36-1.06-4.97-1.85-.55-.26-1.07-.55-1.58-.87-.36-.23-.7-.46-1.03-.71-.22-.16-.44-.33-.66-.5.29-.69.57-1.37.83-2.09.37-1.08.74-2.14,1.12-3.15.08-.2.16-.4.22-.61.37-1.03.66-2.14.37-3.18-.28-1.03-1.04-1.8-1.78-2.49-.45-.42-1.07-.86-1.59-.57-.31.18-.48.57-.61.93-.16.46-.3.93-.43,1.41-.11.44-.2.87-.27,1.32-.04.22-.06.44-.09.66-.03.2-.04.4-.05.6-.09.99-.08,1.96,0,2.94.02.3.05.6.1.89.06.41.14,1.02.27,1.66-.16-.15-.31-.3-.45-.46-.66-.65-1.28-1.3-1.9-1.98.08-.32.15-.64.25-.95.35-1.09.77-2.14,1.03-3.25,0-.02,0-.04,0-.06.02-.04.03-.09.04-.13.13-.66.2-1.34.14-2.01-.02-.41-.1-.8-.23-1.18-.1-.29-.24-.57-.41-.82-.45-.69-1.13-1.17-1.88-1.22-.23,0-.48.03-.66.19-.17.15-.25.4-.3.63s-.09.45-.11.69c-.06.77.04,1.56.2,2.32.11.52.25,1.01.39,1.51.38,1.37.81,2.73,1.32,4.06-1.33-1.45-2.63-2.93-4.08-4.27,0-.08.04-.15.04-.23-.04-.54-.17-1.07-.29-1.59-.04-.17-.08-.35-.12-.52-.12-.61-.2-1.25-.22-1.88-.05-1.25.05-2.52.2-3.76,0-.13.03-.27.04-.4.09-.69.17-1.41.12-2.09-.04-.58-.16-1.13-.45-1.62-.16-.26-.44-.51-.7-.37-.16.1-.24.31-.28.51-.28,1.05-.55,2.07-.78,3.11-.11.44-.2.89-.28,1.34-.19.98-.33,1.98-.3,2.97,0,.43.04.85.11,1.27.06.35.16.69.28,1.01.02.05.04.1.05.15-.04-.05-.09-.12-.13-.17-.64-.78-1.28-1.58-1.91-2.39-.49-.63-.98-1.26-1.47-1.9.07-.1.13-.2.18-.28.41-.73.78-1.48,1.12-2.25.04-.1.08-.2.12-.29.24-.56.46-1.15.65-1.74.56-1.74.86-3.58.65-5.4-.17-1.44-.71-2.9-1.78-3.75-.87,1.52-1.76,3.05-2.38,4.73-.31.85-.55,1.73-.68,2.63-.13.89-.16,1.79-.04,2.68.05.41.16.81.27,1.2-1.16-1.56-2.3-3.12-3.44-4.7.85-.85,1.63-1.8,2.29-2.84.08-.12.15-.22.21-.35.18-.3.34-.61.49-.91.58-1.17,1.01-2.47,1.01-3.8,0-.17,0-.34-.03-.51-.14-1.5-1.04-2.99-2.36-3.33-.36-.1-.75-.1-1.1.04-.82.32-1.25,1.29-1.58,2.19l-.05.16c-.57,1.56-1.05,3.16-1.12,4.83-.02.5.02,1,.09,1.5-.53-.75-1.07-1.49-1.59-2.23-.05-.07-.12-.08-.19-.11-.16-.5-.36-.99-.47-1.41-.28-.99-.56-1.97-.84-2.95-.58-2.03-1.16-4.08-2.04-5.97-.15-.31-.31-.63-.55-.86-.25-.23-.6-.36-.9-.24-.31.13-.5.5-.62.85-.68,1.82-.61,3.96.17,5.73.61,1.39,1.62,2.51,2.67,3.52.51.49,1.03.97,1.54,1.46.2.19.45.53.73.84,1.77,2.49,3.57,4.97,5.38,7.42-.04-.02-.07-.05-.11-.08-.82-.45-1.66-.54-2.43-.99-.06-.12-.15-.24-.2-.31-.19-.21-.42-.37-.62-.57-.59-.54-.97-1.32-1.38-2.04-1.17-2.07-2.73-3.93-4.71-5-.52-.28-1.12-.5-1.65-.23-.49.26-.74.89-.78,1.5-.05.99.36,1.96.96,2.69s1.38,1.25,2.17,1.71c1.17.69,2.4,1.26,3.64,1.79.35.14.69.28,1.05.42.53.56,1.09,1.06,1.74,1.33,1.03.44,1.81.51,2.77,1.33,1.17,1,2.13,2.26,3.08,3.5,0,.09,0,.18.08.27.17.21.32.41.48.62.53.7,1.02,1.41,1.5,2.12.81,1.17,1.6,2.37,2.45,3.52-.62-.3-1.27-.57-1.92-.78-1.51-.48-3.06-.78-4.58-1.21-.82-.23-1.66-.5-2.49-.39-.84.1-1.69.68-1.89,1.59-.08.36-.04.78.16,1.09.18.27.44.41.72.52.1.04.18.07.27.1.05.02.12.04.17.05,1.11.36,2.25.58,3.4.71,1.87.21,3.76.2,5.62.1.27,0,.53-.03.8-.04h.11c.3,0,.69.05.99-.04.21.25.39.51.61.76.65.71,1.26,1.36,1.87,1.99-.12-.09-.24-.17-.32-.22-.61-.43-1.26-.81-1.95-1.08-.4-.16-.8-.28-1.21-.34-.06,0-.13-.02-.2-.03-1.08-.1-2.22.22-2.97,1.08-.26.28-.45.64-.58,1.02-.28.82-.24,1.77.22,2.47.42.63,1.05.95,1.74,1.1.55.14,1.14.18,1.7.19.36,0,1.06.1,1.87.19.12,0,.25.03.37.04,1.69.17,3.7.26,4.16-.45.27-.41.2-.87-.04-1.33.48.4.99.79,1.52,1.17.11.08.21.16.32.23.02.02.02.04.04.05.06.04.13.08.2.12.27.17.52.29.77.44-.12.03-.23.04-.31.05-.55.08-1.1.18-1.65.3-.17.04-.33.08-.5.12-.06,0-.1.02-.15.04-.74.19-1.47.42-2.19.67-.77.26-1.54.55-2.3.85-.15.06-.29.12-.43.17-.44.17-.85.36-1.24.64-.26.19-.5.41-.69.68-.2.25-.35.53-.44.85-.09.33-.12.66-.07,1.01,0,.22.05.43.12.64.07.27.17.53.29.77.23.49.6.98,1.09,1.05.23.04.45-.03.67-.13.22-.12.43-.28.62-.44.25-.2.51-.41.76-.62.74-.6,1.48-1.2,2.21-1.8,1.36-1.12,2.72-2.22,4.08-3.34.15-.12.29-.24.44-.36.18-.14.36-.3.47-.52.28.2.55.42.85.63.1.08.2.15.31.22,1.98,1.4,4.38,2.44,6.63,2.98.38.09.77.17,1.14.23.02,0,.03-.02.04-.02.04.02.09.04.13.06.74.36,1.5.73,2.3,1.13.51.26,1.02.53,1.57.81l.05.03c.19.07.33-.04.41-.21.07,0,.1,0,.12.02.28.08.5-.12.55-.36.03-.13,0-.28-.1-.42ZM173.52,117.55c-.03-.05-.06-.1-.1-.15l.11.13s0,0,0,.02ZM197.34,133.68c-.21-.11-.44-.19-.66-.3.24.09.48.17.71.27-.02,0-.04.03-.05.04Z"/>
  </g>
  <g>
    <path class="cls-8" d="M242.67,137.16c.14.68.25,1.37.15,2.03-.11.66-.47,1.28-1.06,1.52-.96.39-2.18-.38-2.75-1.38-.57-1-.66-2.17-.78-3.28-.13-1.17-2.37-9.11-.12-8.37,1.06.35,2.38,3.46,2.84,4.41.78,1.63,1.37,3.34,1.73,5.07Z"/>
    <path class="cls-8" d="M252.95,139.85c1.03,2.77,1.35,6.03-.25,8.21-.1.14-.22.28-.39.32-.26.07-.55-.13-.77-.33-2.02-1.82-2.54-4.79-2.43-7.4.05-1.13-.18-5.26.87-5.84.98-.54,2.59,4.03,2.96,5.03Z"/>
    <path class="cls-8" d="M264.52,139.08c1.65,1.27,3.24,2.7,4.33,4.49,1.09,1.79,1.63,4,1.04,5.86-.25.79-.77,1.54-1.58,1.66-1.05.16-2.03-.77-2.81-1.62-3.34-3.63-6.68-7.26-10.03-10.89-1.08-1.17-2.77-2.67-1.49-4.18,1.13-1.33,3.2.15,4.51.83,2.07,1.07,4.19,2.32,6.02,3.84Z"/>
    <path class="cls-8" d="M248.88,127.46c3.31.53,6.62,1.05,9.93,1.58.69.11,1.42.23,2.03.63.61.4,1.09,1.17.94,1.85-.25,1.09-1.72,1.11-2.83.92-4.27-.73-8.54-1.47-12.8-2.37-1.04-.22-2.08-.45-3.12-.7-.48-.11-2.61-.32-2.89-.75-.55-.82,1.46-1.29,2.05-1.43,2.13-.5,4.49-.09,6.7.26Z"/>
    <path class="cls-8" d="M247.61,119.07c.92.07,1.99.34,2.45,1.2.46.85.04,1.89-.67,2.38-.72.49-1.64.56-2.53.63-2.61.19-5.22.37-7.84.56-.64.05-5.19.72-4.77-.77.16-.57,2.52-1.39,3.06-1.66,1.06-.52,2.16-.98,3.28-1.37,2.23-.75,4.58-1.14,7.02-.97Z"/>
    <path class="cls-8" d="M234.73,111.65c.44-.19.9-.38,1.4-.34,1.13.08,2.03,1.4,1.97,2.55-.07,1.15-.88,2.06-1.85,2.55-.97.49-2.09.63-3.18.8-2.26.35-4.49.85-6.66,1.49-1.15.34-2.28.71-3.4,1.12-.96.36-2.17,1.2-3.19,1.31-.58.06-1.32-.03-1.02-.85.24-.68,2.27-1.48,2.88-1.85,1.95-1.2,3.94-2.33,5.97-3.4,2.32-1.21,4.68-2.34,7.09-3.38Z"/>
    <path class="cls-8" d="M227.04,125.22c2.09,1.9,3.44,4.6,3.97,7.33.11.57.19,1.15.07,1.7-.12.54-.47,1.04-.98,1.17-.68.18-1.42-.27-2.04-.74-3.28-2.46-6.01-5.8-7.77-9.52-2.2-4.63,5.13-1.43,6.76.06Z"/>
    <path class="cls-8" d="M213.82,125.15c1.04,1.41,1.72,3.05,2.31,4.68.21.58.41,1.19.38,1.79s-.38,1.18-.94,1.29c-.72.14-1.43-.51-1.97-1.1-.58-.63-1.15-1.27-1.58-2.01-.43-.74-.71-1.59-.62-2.4.13-1.19.33-2.71.92-3.72.81-1.39,2.44-2.46,3.59-3.55.44-.42.91-.89,1.01-1.52.14-.97-.64-1.94-1.48-2.53-.6-.42-1.35-.73-1.97-.49-.6.24-.88.92-1.04,1.57-.34,1.32-.42,2.74-.24,4.16.21,1.71.68,2.51,1.66,3.84Z"/>
    <path class="cls-8" d="M254.56,135.91c-4.17-2.81-9.15-3.35-13.51-5.61-3.61-1.87-6.67-4.49-10.49-5.81-9.55-3.29-20.67-.55-29.6,1.65-.61.15-.92-.87-.31-1.02,8.24-2.03,17.72-4.4,26.55-2.72,5.75,1.09,8.61,3.74,13.41,6.53,4.63,2.7,9.9,3.06,14.41,6.1.57.38.11,1.26-.46.87h0Z"/>
    <path class="cls-8" d="M236.85,123.21c-5.4.66-10.67,1.64-16.26.1-.64-.18-.43-1.16.21-.99,5.34,1.47,10.57.5,15.73-.13.63-.08.94.94.31,1.02h0Z"/>
    <path class="cls-8" d="M238.46,128.18c1.42,0,2.52.02,3.85-.34,1.3-.36,2.54-.53,3.94-.33,2.15.3,4.71.98,6.75,1.85.61.26.41,1.25-.21.99-2.12-.9-5.22-1.84-7.39-1.87-1.68-.03-3.03.7-4.63.89-.77.09-1.49-.14-2.26-.14-.64,0-.69-1.04-.05-1.04h0Z"/>
    <path class="cls-8" d="M250.88,138.07c.8-7.22-9.02-5.89-13-7.92-.8-.41-1.29-.93-1.96-1.51-1.8-1.56-3.15-3.13-5.47-3.94-1.52-.53-3.28-.52-4.83-.71-.64-.08-.7-1.12-.05-1.04,3.4.42,5.9.77,8.88,2.95,1.1.8,1.61,1.68,2.58,2.51,1.72,1.47,3.94,1.56,5.94,1.93,4.29.79,9.49,2.65,8.89,8.05-.07.65-1.05.32-.98-.33h0Z"/>
    <path class="cls-8" d="M238.76,129.92c-1.64-.81-3.26-1.78-4.63-3.09-.39-.37-.04-1.01.44-.84.86.3,1.56,1.11,2.33,1.63,1.13.77,2.38.98,3.65,1.11.41.04.6.45.47.8-.03.08-.06.16-.09.24-.23.6-1.12.03-.9-.57.03-.08.06-.16.09-.24.16.27.31.53.47.8-1.05-.11-2.15-.26-3.16-.7-1.11-.49-1.97-1.7-3.08-2.09.15-.28.29-.56.44-.84,1.3,1.25,2.85,2.15,4.42,2.92.61.3.15,1.17-.46.87h0Z"/>
    <path class="cls-8" d="M231.76,116.16c-7.42,1.66-13.02,7.44-20.93,7.9-.64.04-.68-1-.05-1.04,7.75-.45,13.41-6.26,20.67-7.88.62-.14.93.88.31,1.02h0Z"/>
    <path class="cls-8" d="M239.46,128.71c.45.47,1,.8,1.54,1.13.59.35.13,1.22-.46.87-.64-.38-1.23-.75-1.76-1.3-.48-.5.19-1.2.67-.7h0Z"/>
  </g>
  <g>
    <path class="cls-5" d="M165.64,88.46c-1.42,1.8-2.44,4.25-1.92,6.59.51,2.33,3.04,4.1,4.92,2.94-.78,1.58-1.34,3.37-1.22,5.17.13,1.8,1.05,3.61,2.54,4.3,1.5.69,3.5-.06,4.04-1.76,1.16,1.67,2.64,3.13,4.43,3.83,1.79.7,3.91.52,5.39-.8,1.48-1.32,2.09-3.86,1.11-5.67,1.5.97,3.07,1.96,4.79,2.15s3.67-.65,4.34-2.44c.55-1.47.12-3.15-.32-4.66-.39-1.35-1.17-3-2.43-2.8,1.41-1.86,2.3-4.21,2.52-6.63.1-1.06.04-2.24-.58-3.05-.62-.81-1.98-.93-2.45,0,.42-1.72.54-3.62-.15-5.23-.7-1.6-2.39-2.75-3.92-2.22-1.55.53-2.47,2.52-4.06,2.89-1.88.44-3.5-1.56-5.4-1.9-1.31-.23-2.71.43-3.48,1.64-.76,1.21-.85,2.91-.22,4.21-1.07-1.08-2.69-1.44-4.05-.9-1.36.54-2.41,1.97-2.62,3.56-.65-.39-1.55-.08-1.89.64s-.05,1.74.6,2.11v-1.93Z"/>
    <g>
      <path class="cls-2" d="M182.69,90.01c4.19,1.21,6.89-1.08,8.5-5.21.95-2.43,1.4-4.16-.45-6.17-1.67-1.81-3-1.75-4.92-1.25-2.3-.39-6.88-1.08-8.13.96-.73.39-1.21,1.02-1.27,2.01-1.07,3.87,3.18,8.76,6.27,9.65Z"/>
      <path class="cls-2" d="M178.92,92.27c-.05-.24-.11-.48-.18-.71-.12-.43-.27-.85-.44-1.25-.2-.53-.44-1.04-.68-1.55l-.24-.51c-.22-.49-.44-.98-.63-1.48-.15-.38-.28-.78-.39-1.18-.04-.15-.07-.29-.11-.44-.05-.23-.1-.48-.15-.74-.2-.96-.47-2.05-1.03-2.78-.21-.28-.45-.5-.76-.64-.16-.09-.34-.14-.53-.17-.06-.02-.12-.03-.19-.04-.25-.03-.52,0-.8.08-.54.14-1.13.44-1.69.81-1.36.45-2.59,1.14-3.27,2.72-.21.51-.31,1.01-.32,1.52,0,1.4.7,2.75,1.7,3.68,1.28,1.2,3.03,1.45,4.59,1.9.95.27,1.85.63,2.74,1.07.24.12.47.24.71.36.18.1.32.2.45.28.28.15.52.2.89-.06.28-.19.39-.53.32-.87ZM171.32,83.36c-.06.05-.13.12-.2.19-.03,0-.05,0-.09.02.09-.08.19-.13.28-.2Z"/>
      <path class="cls-2" d="M194.77,93.34c-.57-.67-1.36-1.08-2.23-1.31-.63-.42-1.39-.84-2.14-.78-.53.04-.99.28-1.46.55-.12,0-.24.02-.35.03-.67.07-1.51.16-2.32.39-.16-.06-.32-.14-.48-.19-1.65-.5-3.43.96-2.64,3,.11.29.27.54.45.74.02.1.03.2.06.29-1.81-.76-3.87-1.18-5.4-1.47-.13-.02-.25-.03-.37-.04-1.04-.3-1.78-.2-2.86.15-1.49.49-2.9,1.02-4.38,1.49-.59.19-.98.45-1.42.78-.2-.06-.43-.03-.62.16-.48.45-.79,1.21-.99,2.07,0,.02-.01.03-.02.05-.45,1.36-.47,2.52-.2,3.51.03.34.07.66.12.93.63,3.16,2.79,5.38,5.57,5.94.27.05.53.05.79.08,1.32.66,2.68,1.11,3.67,1.35,1.84.45,3.03-.14,4.68-1.06,1.74-.98,4.41-1.53,5.78-3.16,1.42-1.68,1.32-4.03.54-6.07.05-.42.06-.82.03-1.19.31-.03.61-.09.92-.18,1.43-.4,2.86-.15,4.28-.57,1.38-.42,1.99-1.48,1.84-2.55.11-1.04-.2-2.19-.83-2.93Z"/>
    </g>
    <path class="cls-9" d="M180.54,89.56c0,1.1-.8,2-1.79,2s-1.79-.9-1.79-2,.8-2,1.79-2,1.79.9,1.79,2Z"/>
    <ellipse class="cls-9" cx="174.41" cy="93.63" rx=".67" ry=".75"/>
    <path class="cls-9" d="M175.44,90.91c0,.42-.3.75-.67.75s-.67-.34-.67-.75.3-.75.67-.75.67.34.67.75Z"/>
    <path class="cls-9" d="M177.72,93.15c0,.41-.33.74-.74.74s-.74-.33-.74-.74.33-.74.74-.74.74.33.74.74Z"/>
    <path class="cls-9" d="M178.37,89.92c0,.69-.5,1.25-1.12,1.25s-1.12-.56-1.12-1.25.5-1.25,1.12-1.25,1.12.56,1.12,1.25Z"/>
    <path class="cls-9" d="M182.7,96.49c0,.73-.41,1.33-.92,1.33s-.92-.6-.92-1.33.41-1.33.92-1.33.92.6.92,1.33Z"/>
    <ellipse class="cls-9" cx="179.15" cy="95.85" rx=".62" ry=".69"/>
    <path class="cls-9" d="M184.03,94.22c0,1.17-.85,2.13-1.9,2.13s-1.9-.95-1.9-2.13.85-2.13,1.9-2.13,1.9.95,1.9,2.13Z"/>
    <path class="cls-9" d="M183.66,89.3c0,.3-.21.53-.48.53s-.48-.24-.48-.53.21-.53.48-.53.48.24.48.53Z"/>
    <path class="cls-9" d="M182.99,90.78c0,.63-.27,1.13-.6,1.13s-.6-.51-.6-1.13.27-1.13.6-1.13.6.51.6,1.13Z"/>
  </g>
  <g>
    <path class="cls-10" d="M193.26,129.74c-2.36-.88-4.28-3.12-4.97-5.8-.2-.77-.26-1.71.26-2.25.47-.5,1.22-.45,1.86-.28,2.51.66,4.71,2.68,5.77,5.3-.21-1.95-.13-3.74.14-5.69.14-.98.35-1.99.91-2.77s1.52-1.27,2.36-.93c.88.36,1.33,1.53,1.26,2.58-.06,1.05-.52,2.01-.97,2.93-.45.93-.9,1.89-.95,2.94.88-.91,1.78-1.82,2.81-2.5,1.04-.68,2.24-1.11,3.43-.97.84.1,1.76.63,1.91,1.56.16.98-.59,1.84-1.31,2.42-1.27,1.02-2.67,1.82-4.16,2.37,2.07-.03,4.15.66,5.86,1.96.66.5,1.34,1.3,1.15,2.17-.17.78-.94,1.18-1.63,1.36-2.13.56-4.45.08-6.26-1.29.43.83.86,1.66,1.3,2.49.38.72.76,1.46.91,2.29.15.82.01,1.75-.52,2.34-.7.76-1.84.71-2.75.34-2.22-.89-3.83-3.42-3.83-6.06.08.89.15,1.78,0,2.66-.15.87-.54,1.74-1.22,2.2-.73.5-1.64.47-2.49.42-.8-.04-1.62-.1-2.35-.45-.73-.36-1.37-1.08-1.45-1.97-.07-.81.35-1.59.9-2.1.56-.52,1.25-.82,1.92-1.11-1.64.06-3.29-.48-4.64-1.5-.67-.5-1.32-1.39-1-2.21.29-.76,1.19-.9,1.93-.89,2.07.01,3.8-.03,5.83.45Z"/>
    <path class="cls-1" d="M196.53,128.78c0,.75-.5,1.36-1.12,1.36s-1.12-.61-1.12-1.36.5-1.36,1.12-1.36,1.12.61,1.12,1.36Z"/>
    <ellipse class="cls-1" cx="197.93" cy="132.65" rx=".78" ry=".95"/>
    <path class="cls-1" d="M199.89,129.31c0,.87-.58,1.57-1.3,1.57s-1.3-.7-1.3-1.57.58-1.57,1.3-1.57,1.3.7,1.3,1.57Z"/>
    <path class="cls-1" d="M195.41,131.85c0,.49-.33.89-.74.89s-.74-.4-.74-.89.33-.89.74-.89.74.4.74.89Z"/>
  </g>
  <path class="cls-4" d="M136.58,94.88c-1.72,1.39-3.44,2.5-5.12,3.39-16.01,8.56-34.69,1.16-40.64-1.48.71-1.62,1.65-3.91,2.53-6.73,1.14-3.62,2.48-8.34,2.73-13.89.15-3.3-.18-8.84-3.45-15.73,10.13,4.48,21.89,8.56,35.22,11.32,2.91.6,5.76,1.11,8.54,1.55.06,7.19.12,14.38.18,21.57Z"/>
  <path class="cls-6" d="M121.67,89.17c-1.83,0-3.66-.13-5.48-.39-5.89-.84-11.61-3.08-16.54-6.47-.15-.1-.19-.31-.09-.46.1-.15.31-.19.46-.09,4.85,3.34,10.47,5.54,16.26,6.36,5.01.72,10.06.43,14.99-.85.18-.05.36.06.41.24.05.18-.06.36-.24.41-3.22.84-6.49,1.25-9.76,1.25Z"/>
  <path class="cls-6" d="M131.35,77.08c-3.39-.08-6.76-.46-10.05-1.15-7.51-1.56-14.61-4.65-21.09-9.18-.15-.11-.19-.31-.08-.46.11-.15.31-.19.46-.08,6.41,4.48,13.42,7.53,20.84,9.07,3.25.67,6.58,1.06,9.92,1.13.18,0,.33.16.33.34,0,.18-.15.33-.33.33Z"/>
  <path class="cls-4" d="M97.15,85.69l.41.61c-.29.2-.53.19-.41-.61Z"/>
  <path class="cls-4" d="M97.79,86.63l-.21-.33c.5-.32,1.13-1.22.21.33Z"/>
  <path class="cls-4" d="M103.82,95.64c-1.58.09-3.3.24-5.07.52s-3.6.68-5.38,1.25c-.21.06-.42.13-.62.2-.1.03-.2.06-.29.1-3.65,1.29-7.14,3.33-9.74,6.56-7.15,8.84-4.58,22.29-2.4,30.89.53,2.13,1.05,3.96,1.39,5.36.32,1.33.59,2.71.79,4.16,1.41,9.79-.07,22.31-7.64,38.49-4.73,10.13-11.85,21.7-22.15,34.92H0v-6.34c3.85-4.75,8.34-9.81,13.49-14.95,23.6-23.57,34.04-19.83,41.83-36.25,13.16-27.74,2.41-47.83,17.5-57.81,3.52-2.32,7.64-3.58,11.69-5.26,2.1-.86,4.16-1.83,6.1-3.12.47-.32.95-.65,1.42-1,.03-.02.04-.04.07-.05.06-.05.12-.1.19-.16.67-.53,1.31-1.1,1.93-1.74.49-.49.96-1.02,1.41-1.59.62-.77,1.21-1.61,1.76-2.55.15-.25.28-.45.38-.63l2.43,3.63,2.99,4.46.61.92Z"/>
  <g>
    <path class="cls-2" d="M185.1,130.94c-.54,3.38-2.04,12.78-7.87,14.97-2.82,1.06-5.54.01-10.55,2.36-1.62.76-1.58,1.01-2.32,1.17-.68.14-15.25-5.56-16.09-18.5-.38-5.78,1.97-13.3,7.69-16.35,2.68-1.43,5.36-1.28,10.72-.99,8.28.45,14.37.67,17.3,4.99,2.5,3.69,1.8,8.05,1.12,12.34Z"/>
    <path class="cls-5" d="M165.75,149.68c2.41-1.67,5.06-1.17,7.76-1.85,2.26-.57,3.82-1.84,5.75-3.08,4.46-2.88,4.11-8.84,5.8-13.57.43-1.22-1.5-1.74-1.93-.53-.96,2.68-1.53,5.39-2.25,8.14-.76,2.89-1.83,3.81-4.29,5.35-3.78,2.37-8.24,1.32-11.84,3.81-1.05.73-.05,2.46,1.01,1.73h0Z"/>
    <path class="cls-5" d="M157.85,119.7c-2.69,1.54-4.45,3.87-4.81,7.02-.23,2-.56,3.63-1.01,5.61-.27,1.21-.34,2.27.04,3.45.58,1.79,1.9,2.95,3.69,3.52,1.14.36,1.65.22,2.88.19,3.13-.07,6.4,1.06,9.16,2.53,1.14.61,2.15-1.12,1.01-1.73-3.44-1.84-7.03-2.89-10.85-2.92-2.54-.02-4.33-.3-4.01-4.52.08-1.06.84-2.06,1.05-3.1.72-3.55-.33-5.95,3.86-8.33,1.12-.64.11-2.37-1.01-1.73h0Z"/>
    <path class="cls-5" d="M171.98,138.43c.97-2.81,4.13-3.76,5.2-6.55.72-1.87.64-4.04.04-5.93-1.21-3.8-4.51-8.71-9.13-8.33-2.47.2-5.05,2.47-6.83,3.98-1.38,1.17-2.07,2.62-2.39,4.43-.63,3.57-.07,7.97,4.43,7.9,1.29-.02,1.29-2.02,0-2-2.69.05-2.7-3.07-2.56-4.71.2-2.45,1.4-3.25,2.98-4.67,1.76-1.58,2.31-2.29,4.79-2.26,2.95.04,4.02,1.03,5.58,3.65,2.19,3.69,2.05,6.97-1.13,9.99-1.27,1.21-2.33,2.27-2.92,3.98-.42,1.22,1.51,1.74,1.93.53h0Z"/>
    <path class="cls-5" d="M163.86,125.54c-1.68.58-2.6,1.96-1.84,3.74.31.71.8,1.11,1.52,1.39,1.02.4,1.64.63,2.24,1.63.76,1.26,2.09,1.73,3.26.57.55-.54.93-1.33,1.16-2.06.35-1.12.08-2.16.04-3.3-.04-1.29-2.04-1.29-2,0,.03,1.06.34,2.02-.09,3.04-.05.13-.54,1-.5,1.01-.1-.03-.45-.8-.49-.86-.39-.57-.9-1.02-1.52-1.34-.65-.34-3.14-1.24-1.25-1.89,1.21-.42.69-2.35-.53-1.93h0Z"/>
    <path class="cls-5" d="M165.8,128.72c.13.06.68.37.66.46-.11.53.16,1.08.7,1.23.5.14,1.12-.17,1.23-.7.26-1.21-.51-2.22-1.58-2.72-.49-.23-1.08-.14-1.37.36-.25.43-.13,1.14.36,1.37h0Z"/>
    <path class="cls-5" d="M166.83,124.09c2.52.04,4.65,1.47,4.92,4.05.19,1.83.06,4.13-1.83,4.83-1.03.38-2.45.78-3.53.24-.87-.44-1.45-1.76-1.92-2.55-.31-.52-.77-1.06-.98-1.64-.67-1.77.23-2.68,1.89-3.02,1.26-.26.73-2.19-.53-1.93-1.59.33-2.76,1.04-3.56,2.51-.81,1.5-.04,2.64.74,3.94.93,1.54,1.72,3.45,3.34,4.41,1.39.83,3.13.51,4.66.3,3.02-.42,3.94-4.11,3.83-6.76-.07-1.49-.36-3.43-1.58-4.42-1.44-1.16-3.63-1.94-5.46-1.97-1.29-.02-1.29,1.98,0,2h0Z"/>
    <path class="cls-5" d="M161.69,117.46c2.93.01,5.88-.79,8.8-.64,2.68.13,5.49.93,8.14,1.46,1.65.33,2.5.05,3.06,2.08.26.92-.04,2.65-.17,3.74-.22,1.82-.27,3.38-1.64,4.72-1.22,1.21-2.99,2.08-4.31,3.25-.97.86.45,2.27,1.42,1.42,2.17-1.92,6.07-3.52,6.65-6.72.19-1.06.11-3.3.2-4.38.03-.42.1-.86.06-1.28-.12-1.14-.66-2.85-1.54-3.66-2.03-1.88-6.13-1.66-8.81-2.18-4.05-.77-7.77.2-11.85.18-1.29,0-1.29,2,0,2h0Z"/>
    <path class="cls-5" d="M155.33,137.81c-3.35,2.73,5.92,6.15,7.51,6.62,1.93.57,9.8-.28,7.64-3.67-.69-1.08-2.42-.08-1.73,1.01,0,.01-2.84.76-3.04.79-1.19.17-2.15.03-3.26-.38-.4-.15-5.81-2.88-5.71-2.96,1-.81-.42-2.22-1.42-1.42h0Z"/>
    <path class="cls-5" d="M154.5,127.42c-.41-1.01.25-2.53.54-3.54.47-1.69,1-3.14,2.36-4.32.97-.84,2.23-1.76,3.49-2.03.64-.14,2.76-.39,3.36.03-.07-.52-.14-1.05-.2-1.57-.89,1.03-2.43,1.31-3.56,2.02-1.11.7-2.19,1.5-3.29,2.23-1.68,1.12-3.37,2.13-3.76,4.21-.24,1.26,1.69,1.8,1.93.53.4-2.12,3.64-3.43,5.23-4.58,1.5-1.09,3.64-1.58,4.86-2.99.45-.52.35-1.18-.2-1.57-1.12-.78-3.38-.5-4.64-.29-1.67.29-3.29,1.4-4.55,2.49-1.45,1.26-2.22,2.87-2.77,4.68-.46,1.51-1.36,3.7-.73,5.25.48,1.18,2.42.66,1.93-.53h0Z"/>
    <path class="cls-5" d="M177.08,133.8c-.6.52-1.29.88-1.79,1.5-.71.88-.87,2.05-1.6,2.92-1.46,1.74-4.04,2.17-6.17,2.51-1.27.2-.73,2.13.53,1.93,2.17-.34,4.49-.84,6.25-2.24.79-.63,1.26-1.27,1.72-2.16.35-.67.52-1.29,1.05-1.85.43-.45.96-.77,1.42-1.18.97-.85-.45-2.26-1.42-1.42h0Z"/>
    <path class="cls-5" d="M155.18,128.87c.88,2.23,2.33,5.38,4.35,6.78,2.45,1.69,6.08,1.56,8.85,1.1,2.53-.42,5.93-1.33,7.63-3.45,1.67-2.07,1.61-5.84,1.4-8.37-.43-5.24-6.68-8.49-11.35-6.67-5.71,2.22-12.49,5.01-10.75,12.43.29,1.25,2.23.72,1.93-.53-1.25-5.35,4.04-7.38,7.85-9.28,4.73-2.35,10.5-.15,10.28,5.8-.09,2.34.06,4.49-2.09,6.29-1.6,1.33-4.76,1.85-6.72,2-4.97.39-7.73-2.29-9.45-6.63-.47-1.18-2.41-.67-1.93.53h0Z"/>
  </g>
</svg>