<?xml version="1.0" encoding="UTF-8"?>
<svg id="Layer_1" xmlns="http://www.w3.org/2000/svg" viewBox="0 0 264 316.87">
  <defs>
    <style>
      .cls-1 {
        fill: #ef3d5a;
      }
    </style>
  </defs>
  <path class="cls-1" d="M132,316.87c143.77,0,44.02-192.89,132-214.89-9.74-2.6-18.88-3.79-27.49-3.79-54.96,0-71.33,48.63-104.51,90.38-33.19-41.75-49.56-90.38-104.51-90.38-8.61,0-17.74,1.19-27.49,3.79,87.98,21.99-11.77,214.89,132,214.89Z"/>
  <path class="cls-1" d="M120.12,148.67c3.84,5.68,7.76,11.48,11.88,17.22,4.11-5.73,8.03-11.53,11.88-17.22,9.78-14.47,19.72-29.15,32.01-40.98-8.92-21.31-24.44-39.91-43.89-53.98-19.45,14.08-34.96,32.68-43.89,53.99,12.29,11.83,22.23,26.51,32.01,40.98Z"/>
  <circle class="cls-1" cx="132" cy="16.61" r="16.61" transform="translate(85.6 141.29) rotate(-76.76)"/>
  <circle class="cls-1" cx="205.25" cy="62.66" r="16.61" transform="translate(97.26 248.1) rotate(-76.76)"/>
  <circle class="cls-1" cx="58.75" cy="62.66" r="16.61" transform="translate(-26.39 51.33) rotate(-39.26)"/>
</svg>